<?xml version="1.0" encoding="UTF-8" standalone="no"?>
<svg
   xmlns:dc="http://purl.org/dc/elements/1.1/"
   xmlns:cc="http://creativecommons.org/ns#"
   xmlns:rdf="http://www.w3.org/1999/02/22-rdf-syntax-ns#"
   xmlns:svg="http://www.w3.org/2000/svg"
   xmlns="http://www.w3.org/2000/svg"
   xmlns:sodipodi="http://sodipodi.sourceforge.net/DTD/sodipodi-0.dtd"
   xmlns:inkscape="http://www.inkscape.org/namespaces/inkscape"
   height="32px"
   version="1.1"
   viewBox="0 0 32 32"
   width="32px"
   id="svg13"
   sodipodi:docname="logo.svg"
   inkscape:version="0.92.4 (33fec40, 2019-01-16)">
  <metadata
     id="metadata17">
    <rdf:RDF>
      <cc:Work
         rdf:about="">
        <dc:format>image/svg+xml</dc:format>
        <dc:type
           rdf:resource="http://purl.org/dc/dcmitype/StillImage" />
        <dc:title></dc:title>
      </cc:Work>
    </rdf:RDF>
  </metadata>
  <sodipodi:namedview
     pagecolor="#ffffff"
     bordercolor="#666666"
     borderopacity="1"
     objecttolerance="10"
     gridtolerance="10"
     guidetolerance="10"
     inkscape:pageopacity="0"
     inkscape:pageshadow="2"
     inkscape:window-width="1920"
     inkscape:window-height="1053"
     id="namedview15"
     showgrid="false"
     inkscape:zoom="10.429825"
     inkscape:cx="14.747809"
     inkscape:cy="5.8074893"
     inkscape:window-x="0"
     inkscape:window-y="27"
     inkscape:window-maximized="1"
     inkscape:current-layer="svg13" />
  <desc
     id="desc4" />
  <defs
     id="defs6" />
  <rect
     width="32"
     height="32"
     fill="#FFFFFF"
     id="rect8" />
  <path
     d="m 22,29 h -2 v 0 -1 h 2 z m 1,0 h 1.002578 C 25.105724,29 26,28.101788 26,27.009205 V 26 26 h -1 v 1.006602 C 25,27.555054 24.552303,28 24.00004,28 H 23 Z m -4,0 h -2 v 0 -1 h 2 z m -3,0 h -2 v 0 -1 h 2 z m -3,0 h -2 v 0 -1 h 2 z m -3,0 H 8.9974219 C 7.8909254,29 7,28.101288 7,26.99267 V 26 h 1 v 1.004543 C 8,27.554319 8.4547089,28 8.9999602,28 H 10 Z m 16,-4 v -2 0 h -1 v 2 z M 7,25 v -2 h 1 v 2 z m 19,-3 v -2 0 h -1 v 2 z M 7,22 v -2 h 1 v 2 z m 20,-4 v -2 h 1 v 5 H 27 V 19 H 6 v 2 H 5 v -5 h 1 v 2 z M 26,17 V 9 9 L 20,2 H 9.0027601 C 7.8966662,2 7,2.8983383 7,4.0073299 V 17 H 8 V 3.995457 C 8,3.4552629 8.4457352,3 8.9955775,3 H 19 V 7.9940809 C 19,9.1134452 19.894496,10 20.997913,10 H 25 v 7 z M 20,3.5 V 7.9912152 C 20,8.5483517 20.450651,9 20.996739,9 h 3.703212 z"
     id="document-scan"
     inkscape:connector-curvature="0"
     style="fill:#157efb;fill-rule:evenodd;stroke:none;stroke-width:1" />
  <text
     xml:space="preserve"
     style="font-style:normal;font-weight:normal;font-size:40px;line-height:1.25;font-family:sans-serif;letter-spacing:0px;word-spacing:0px;fill:#157efb;fill-opacity:1;stroke:none"
     x="9.3366594"
     y="13.296603"
     id="text3724"><tspan
       sodipodi:role="line"
       id="tspan3722"
       x="9.3366594"
       y="13.296603"
       style="font-size:10.66666698px;fill:#157efb;fill-opacity:1;-inkscape-font-specification:Ubuntu;font-family:Ubuntu;font-weight:normal;font-style:normal;font-stretch:normal;font-variant:normal">A</tspan></text>
  <path
     style="fill:none;stroke:#157efb;stroke-width:1;stroke-linecap:round;stroke-linejoin:miter;stroke-miterlimit:4;stroke-dasharray:none;stroke-opacity:1"
     d="M 17.408938,12.8 H 22.1"
     id="path4533"
     inkscape:connector-curvature="0"
     sodipodi:nodetypes="cc" />
  <path
     style="fill:none;stroke:#157efb;stroke-width:1;stroke-linecap:round;stroke-linejoin:miter;stroke-miterlimit:4;stroke-dasharray:none;stroke-opacity:1"
     d="M 10,14.8 H 22.100344"
     id="path4533-3"
     inkscape:connector-curvature="0"
     sodipodi:nodetypes="cc" />
  <path
     style="fill:none;stroke:#157efb;stroke-width:1;stroke-linecap:round;stroke-linejoin:miter;stroke-miterlimit:4;stroke-dasharray:none;stroke-opacity:1"
     d="M 10,16.8 H 22.1"
     id="path4533-3-6"
     inkscape:connector-curvature="0"
     sodipodi:nodetypes="cc" />
</svg>
